<?xml version="1.0" encoding="UTF-8"?>
<svg xmlns="http://www.w3.org/2000/svg" viewBox="0 0 85.42 80.00" role="img" aria-label="Markline">
  <path fill="#004AAD" d="M11.66 37.66L11.66 40.68Q11.66 41.69 12.02 41.69Q12.24 41.69 12.38 41.62Q12.53 41.54 12.74 41.33Q12.96 41.11 13.10 40.90Q13.25 40.68 13.50 40.32Q13.75 39.96 13.97 39.74Q17.71 34.99 22.82 34.99Q28.08 34.99 31.25 39.02Q31.75 39.67 32.26 40.57Q32.76 41.47 33.05 41.87Q33.34 42.26 33.62 42.26Q33.98 42.26 34.31 41.98Q34.63 41.69 35.14 40.82Q35.64 39.96 36.07 39.46Q39.60 34.99 45.22 34.99Q49.03 34.99 51.80 36.76Q54.58 38.52 55.80 41.69Q57.17 45.22 57.17 53.21L57.17 59.40Q57.17 67.10 58.10 67.97Q58.39 68.26 59.90 68.76Q61.42 69.26 61.42 70.13Q61.42 72.29 54.36 72.29Q47.38 72.29 47.38 70.13Q47.38 69.26 49 68.72Q50.62 68.18 51.05 67.54Q51.70 66.38 51.70 52.20Q51.70 45.79 50.08 42.80Q48.46 39.82 44.64 39.82Q42.05 39.82 39.35 41.54Q36.65 43.27 35.21 45.94Q34.42 47.45 34.42 56.38L34.42 59.40Q34.42 67.10 35.35 67.97Q35.64 68.26 37.19 68.76Q38.74 69.26 38.74 70.13Q38.74 72.29 31.54 72.29Q24.62 72.29 24.62 70.13Q24.62 69.26 26.24 68.72Q27.86 68.18 28.30 67.54Q28.94 66.53 28.94 52.20Q28.94 45.72 27.32 42.77Q25.70 39.82 21.82 39.82Q19.30 39.82 16.60 41.58Q13.90 43.34 12.38 46.01Q11.66 47.30 11.66 51.77L11.66 53.50Q11.66 66.46 12.31 67.54Q12.74 68.18 14.36 68.72Q15.98 69.26 15.98 70.13Q15.98 72.29 8.93 72.29Q1.80 72.29 1.80 70.13Q1.80 69.26 3.42 68.72Q5.04 68.18 5.47 67.54Q6.19 66.24 6.19 53.50Q6.19 42.62 5.26 41.26Q4.97 40.82 3.10 40.54Q1.22 40.25 1.22 39.02Q1.22 37.80 4.21 36.40Q7.20 34.99 9.86 34.99Q10.87 34.99 11.27 35.60Q11.66 36.22 11.66 37.66"/>
  <rect fill="#004AAD" x="71.42" y="30.99" width="10" height="45.01" rx="1"/>
</svg>
