<svg width="175" height="204" viewBox="0 0 175 204" fill="none" xmlns="http://www.w3.org/2000/svg">
<path d="M99.2457 120.49L52.4157 202.17C52.0757 202.76 51.4457 203.13 50.7557 203.13H1.91572C0.445717 203.13 -0.474318 201.54 0.255682 200.27L59.1557 97.5199C59.6757 96.5999 60.8457 96.2899 61.7657 96.8099L98.5357 117.89C99.4557 118.41 99.7657 119.58 99.2457 120.5V120.49Z" fill="#3E59F3"/>
<path d="M173.866 82.52L141.346 139.94C140.826 140.86 139.656 141.18 138.746 140.66L101.866 119.77C100.946 119.25 100.626 118.08 101.146 117.17L139.456 49.54C139.796 48.94 139.786 48.21 139.436 47.62L139.096 47.05C138.746 46.47 138.126 46.12 137.456 46.12L31.0258 46.16C29.9658 46.16 29.1157 45.3 29.1157 44.25V1.91C29.1157 0.850004 29.9758 0 31.0258 0H124.646C125.316 0 125.946 0.350023 126.286 0.930023L153.296 46.16L173.856 80.6C174.206 81.19 174.216 81.92 173.876 82.52H173.866Z" fill="#3E59F3"/>
</svg>
